<?xml version="1.0" standalone="no"?>
<!DOCTYPE svg PUBLIC "-//W3C//DTD SVG 20010904//EN"
 "http://www.w3.org/TR/2001/REC-SVG-20010904/DTD/svg10.dtd">
<svg version="1.0" xmlns="http://www.w3.org/2000/svg"
 width="724.000000pt" height="174.000000pt" viewBox="0 0 724.000000 174.000000"
 preserveAspectRatio="xMidYMid meet">

<g transform="translate(0.000000,174.000000) scale(0.100000,-0.100000)"
fill="#000000" stroke="none">
<path d="M3767 1444 c-4 -4 -7 -29 -7 -56 l0 -48 56 0 55 0 -3 53 -3 52 -45 3
c-25 2 -49 0 -53 -4z"/>
<path d="M1993 1400 c0 -25 2 -35 4 -22 2 12 2 32 0 45 -2 12 -4 2 -4 -23z"/>
<path d="M3200 1145 l0 -285 128 0 c151 0 210 14 269 65 64 55 87 112 87 220
0 106 -22 163 -84 219 -56 51 -120 66 -272 66 l-128 0 0 -285z m300 162 c54
-36 75 -81 75 -162 0 -81 -21 -126 -75 -162 -27 -19 -47 -23 -111 -23 l-79 0
0 185 0 185 79 0 c64 0 84 -4 111 -23z"/>
<path d="M5230 1350 l0 -70 -30 0 c-28 0 -30 -2 -30 -40 0 -38 2 -40 30 -40
l30 0 0 -143 c0 -161 6 -177 67 -197 28 -10 48 -10 89 -1 30 7 56 16 59 22 3
5 3 25 -1 44 -6 36 -6 36 -49 29 -58 -8 -65 7 -65 140 l0 106 45 0 45 0 0 40
0 40 -45 0 -45 0 0 70 0 70 -50 0 -50 0 0 -70z"/>
<path d="M4420 1281 c-107 -22 -170 -101 -170 -213 0 -167 175 -267 330 -188
76 39 91 78 35 94 -37 11 -42 10 -62 -10 -47 -50 -132 -42 -170 15 -40 60 -40
60 140 63 l162 3 -2 48 c-3 55 -21 95 -61 133 -49 47 -132 69 -202 55z m106
-90 c17 -11 36 -33 42 -50 l11 -31 -110 0 c-125 0 -134 7 -75 66 40 40 83 45
132 15z"/>
<path d="M4899 1281 c-94 -19 -160 -94 -167 -190 -6 -77 11 -125 63 -176 69
-70 178 -83 267 -33 42 24 75 66 61 78 -4 4 -25 13 -46 20 -35 11 -41 10 -61
-9 -49 -46 -129 -32 -161 29 -30 58 -12 155 34 180 33 17 96 12 124 -10 23
-18 30 -19 71 -8 25 7 46 18 46 24 0 25 -82 83 -132 93 -27 6 -52 10 -56 10
-4 -1 -23 -4 -43 -8z"/>
<path d="M5655 1281 c-103 -26 -165 -108 -165 -218 0 -91 59 -173 144 -198 62
-19 80 -19 144 0 98 30 146 104 140 222 -3 62 -7 76 -34 110 -55 68 -152 104
-229 84z m118 -112 c75 -59 45 -202 -48 -225 -34 -8 -92 21 -109 55 -30 58
-13 154 31 180 31 18 98 13 126 -10z"/>
<path d="M2213 1245 c0 -22 2 -30 4 -17 2 12 2 30 0 40 -3 9 -5 -1 -4 -23z"/>
<path d="M3760 1070 l0 -210 55 0 55 0 0 210 0 210 -55 0 -55 0 0 -210z"/>
<path d="M3960 1070 l0 -210 55 0 55 0 0 128 c0 121 1 130 23 149 31 29 61 43
91 43 24 0 26 3 26 50 0 44 -3 50 -20 50 -31 0 -74 -25 -104 -60 l-26 -32 0
46 0 46 -50 0 -50 0 0 -210z"/>
<path d="M5990 1070 l0 -210 55 0 55 0 0 128 c0 121 1 130 23 149 31 29 61 43
91 43 24 0 26 3 26 50 0 44 -3 50 -20 50 -31 0 -74 -25 -104 -60 l-26 -32 0
46 0 46 -50 0 -50 0 0 -210z"/>
<path d="M6274 1243 c8 -21 44 -114 81 -208 69 -176 74 -206 41 -250 -10 -14
-24 -19 -50 -17 l-36 3 0 -45 c0 -40 3 -46 25 -52 42 -10 95 5 130 39 29 28
47 68 125 292 49 143 90 263 90 267 0 5 -22 8 -50 8 l-49 0 -21 -67 c-11 -38
-33 -108 -48 -156 l-29 -88 -16 43 c-23 63 -88 241 -92 256 -3 7 -24 12 -59
12 l-55 0 13 -37z"/>
<path d="M982 880 c0 -14 2 -19 5 -12 2 6 2 18 0 25 -3 6 -5 1 -5 -13z"/>
<path d="M1311 524 c0 -11 3 -14 6 -6 3 7 2 16 -1 19 -3 4 -6 -2 -5 -13z"/>
</g>
</svg>
