<svg data-v-423bf9ae="" xmlns="http://www.w3.org/2000/svg" viewBox="0 0 407.4000222342355 60" class="font"><!----><!----><!----><g data-v-423bf9ae="" id="15718c9f-3a64-4148-9e5a-7f3154beda53" fill="black" transform="matrix(4.285714285714286,0,0,4.285714285714286,-0.5571428196770682,-17.099999802453176)"><path d="M7.15 5.67L7.15 5.67L7.15 5.67Q6.78 5.67 6.32 5.61L6.32 5.61L6.32 5.61Q5.87 5.54 5.19 5.40L5.19 5.40L4.61 8.19L6.65 8.19L6.43 9.23L4.38 9.23L3.25 14.49L1.23 14.49L3.25 5.14L3.25 5.14Q2.28 5.18 1.85 5.88L1.85 5.88L1.85 5.88Q1.43 6.58 1.43 8.04L1.43 8.04L1.43 8.04Q1.43 8.30 1.46 8.50L1.46 8.50L1.46 8.50Q1.50 8.69 1.58 8.88L1.58 8.88L1.58 8.88Q1.61 8.93 1.62 8.95L1.62 8.95L1.62 8.95Q1.62 8.97 1.62 8.99L1.62 8.99L1.62 8.99Q0.84 8.99 0.48 8.66L0.48 8.66L0.48 8.66Q0.13 8.33 0.13 7.63L0.13 7.63L0.13 7.63Q0.13 5.96 1.38 4.98L1.38 4.98L1.38 4.98Q2.63 3.99 4.90 3.99L4.90 3.99L4.90 3.99Q5.03 3.99 5.21 4.00L5.21 4.00L5.21 4.00Q5.39 4.02 5.81 4.06L5.81 4.06L5.81 4.06Q6.37 4.12 6.67 4.14L6.67 4.14L6.67 4.14Q6.97 4.16 7.22 4.16L7.22 4.16L7.22 4.16Q7.60 4.16 7.91 4.12L7.91 4.12L7.91 4.12Q8.22 4.07 8.48 3.99L8.48 3.99L8.48 3.99Q8.47 4.02 8.36 4.42L8.36 4.42L8.36 4.42Q8.25 4.83 8.09 5.07L8.09 5.07L8.09 5.07Q7.94 5.31 7.71 5.45L7.71 5.45L7.71 5.45Q7.48 5.60 7.15 5.67ZM10.98 8.13L10.98 8.13L10.98 8.23L11.13 7.49L13.15 7.49L12.14 12.25L12.14 12.25Q12.11 12.38 12.10 12.48L12.10 12.48L12.10 12.48Q12.08 12.59 12.08 12.70L12.08 12.70L12.08 12.70Q12.08 13.01 12.22 13.15L12.22 13.15L12.22 13.15Q12.36 13.30 12.66 13.30L12.66 13.30L12.66 13.30Q13.02 13.30 13.31 12.96L13.31 12.96L13.31 12.96Q13.61 12.61 13.79 11.98L13.79 11.98L14.38 11.98L14.38 11.98Q13.93 13.27 13.22 13.92L13.22 13.92L13.22 13.92Q12.50 14.57 11.56 14.57L11.56 14.57L11.56 14.57Q10.96 14.57 10.61 14.24L10.61 14.24L10.61 14.24Q10.25 13.90 10.19 13.29L10.19 13.29L10.19 13.29Q9.76 13.93 9.23 14.25L9.23 14.25L9.23 14.25Q8.71 14.57 8.11 14.57L8.11 14.57L8.11 14.57Q7.24 14.57 6.74 13.99L6.74 13.99L6.74 13.99Q6.24 13.40 6.24 12.32L6.24 12.32L6.24 12.32Q6.24 11.54 6.48 10.68L6.48 10.68L6.48 10.68Q6.72 9.83 7.14 9.13L7.14 9.13L7.14 9.13Q7.66 8.30 8.34 7.86L8.34 7.86L8.34 7.86Q9.03 7.42 9.84 7.42L9.84 7.42L9.84 7.42Q10.39 7.42 10.68 7.61L10.68 7.61L10.68 7.61Q10.98 7.80 10.98 8.13ZM10.18 11.98L10.85 8.82L10.85 8.82Q10.85 8.61 10.70 8.45L10.70 8.45L10.70 8.45Q10.54 8.29 10.28 8.29L10.28 8.29L10.28 8.29Q9.51 8.29 8.91 9.58L8.91 9.58L8.91 9.58Q8.32 10.86 8.32 12.12L8.32 12.12L8.32 12.12Q8.32 12.67 8.47 12.94L8.47 12.94L8.47 12.94Q8.62 13.22 9.02 13.22L9.02 13.22L9.02 13.22Q9.38 13.22 9.72 12.87L9.72 12.87L9.72 12.87Q10.07 12.52 10.18 11.98L10.18 11.98ZM18.93 8.65L18.93 8.65L18.93 8.65Q18.93 9.13 18.73 9.40L18.73 9.40L18.73 9.40Q18.52 9.67 18.19 9.67L18.19 9.67L18.19 9.67Q18.07 9.67 17.95 9.63L17.95 9.63L17.95 9.63Q17.82 9.59 17.70 9.51L17.70 9.51L17.70 9.51Q17.78 9.28 17.82 9.07L17.82 9.07L17.82 9.07Q17.86 8.86 17.86 8.68L17.86 8.68L17.86 8.68Q17.86 8.40 17.77 8.25L17.77 8.25L17.77 8.25Q17.67 8.11 17.47 8.11L17.47 8.11L17.47 8.11Q16.86 8.11 16.27 9.53L16.27 9.53L16.27 9.53Q15.68 10.95 15.68 12.22L15.68 12.22L15.68 12.22Q15.68 12.87 15.90 13.13L15.90 13.13L15.90 13.13Q16.11 13.40 16.69 13.40L16.69 13.40L16.69 13.40Q17.35 13.40 17.90 13.10L17.90 13.10L17.90 13.10Q18.45 12.80 19.17 11.98L19.17 11.98L19.64 11.98L19.64 11.98Q18.83 13.30 17.88 13.94L17.88 13.94L17.88 13.94Q16.93 14.57 15.79 14.57L15.79 14.57L15.79 14.57Q14.71 14.57 14.16 14.01L14.16 14.01L14.16 14.01Q13.61 13.45 13.61 12.35L13.61 12.35L13.61 12.35Q13.61 11.55 13.85 10.65L13.85 10.65L13.85 10.65Q14.10 9.76 14.53 9.06L14.53 9.06L14.53 9.06Q15.05 8.22 15.77 7.79L15.77 7.79L15.77 7.79Q16.49 7.36 17.37 7.36L17.37 7.36L17.37 7.36Q18.14 7.36 18.54 7.69L18.54 7.69L18.54 7.69Q18.93 8.02 18.93 8.65ZM21.52 13.22L21.52 13.22L21.52 13.22Q21.88 13.22 22.17 12.90L22.17 12.90L22.17 12.90Q22.46 12.59 22.64 11.98L22.64 11.98L23.59 7.49L25.61 7.49L24.60 12.25L24.60 12.25Q24.57 12.38 24.56 12.48L24.56 12.48L24.56 12.48Q24.54 12.59 24.54 12.70L24.54 12.70L24.54 12.70Q24.54 12.98 24.68 13.10L24.68 13.10L24.68 13.10Q24.81 13.22 25.12 13.22L25.12 13.22L25.12 13.22Q25.48 13.22 25.77 12.89L25.77 12.89L25.77 12.89Q26.07 12.57 26.25 11.98L26.25 11.98L26.84 11.98L26.84 11.98Q26.39 13.27 25.68 13.92L25.68 13.92L25.68 13.92Q24.96 14.57 24.02 14.57L24.02 14.57L24.02 14.57Q23.42 14.57 23.06 14.23L23.06 14.23L23.06 14.23Q22.69 13.89 22.64 13.24L22.64 13.24L22.64 13.24Q22.23 13.92 21.72 14.25L21.72 14.25L21.72 14.25Q21.21 14.57 20.57 14.57L20.57 14.57L20.57 14.57Q19.87 14.57 19.47 14.13L19.47 14.13L19.47 14.13Q19.07 13.69 19.07 12.89L19.07 12.89L19.07 12.89Q19.07 12.71 19.10 12.48L19.10 12.48L19.10 12.48Q19.12 12.25 19.18 11.98L19.18 11.98L20.13 7.49L22.15 7.49L21.14 12.25L21.14 12.25Q21.11 12.36 21.11 12.45L21.11 12.45L21.11 12.45Q21.10 12.54 21.10 12.64L21.10 12.64L21.10 12.64Q21.10 12.92 21.20 13.07L21.20 13.07L21.20 13.07Q21.31 13.22 21.52 13.22ZM26.14 12.89L26.14 12.89L26.14 12.89Q26.14 12.71 26.17 12.48L26.17 12.48L26.17 12.48Q26.19 12.25 26.25 11.98L26.25 11.98L27.75 4.97L29.82 4.69L28.21 12.25L28.21 12.25Q28.18 12.38 28.17 12.48L28.17 12.48L28.17 12.48Q28.15 12.59 28.15 12.70L28.15 12.70L28.15 12.70Q28.15 12.98 28.29 13.10L28.29 13.10L28.29 13.10Q28.42 13.22 28.73 13.22L28.73 13.22L28.73 13.22Q29.12 13.22 29.47 12.87L29.47 12.87L29.47 12.87Q29.82 12.53 29.99 11.98L29.99 11.98L30.58 11.98L30.58 11.98Q30.13 13.26 29.37 13.92L29.37 13.92L29.37 13.92Q28.62 14.57 27.64 14.57L27.64 14.57L27.64 14.57Q26.94 14.57 26.54 14.13L26.54 14.13L26.54 14.13Q26.14 13.69 26.14 12.89ZM30.37 8.05L30.48 7.49L30.94 7.49L31.36 5.56L33.43 5.28L32.96 7.49L33.80 7.49L33.68 8.05L32.84 8.05L31.95 12.25L31.95 12.25Q31.92 12.38 31.91 12.48L31.91 12.48L31.91 12.48Q31.89 12.59 31.89 12.70L31.89 12.70L31.89 12.70Q31.89 12.98 32.02 13.10L32.02 13.10L32.02 13.10Q32.16 13.22 32.47 13.22L32.47 13.22L32.47 13.22Q32.86 13.22 33.21 12.87L33.21 12.87L33.21 12.87Q33.56 12.53 33.73 11.98L33.73 11.98L34.31 11.98L34.31 11.98Q33.87 13.26 33.11 13.92L33.11 13.92L33.11 13.92Q32.35 14.57 31.37 14.57L31.37 14.57L31.37 14.57Q30.67 14.57 30.27 14.13L30.27 14.13L30.27 14.13Q29.88 13.69 29.88 12.89L29.88 12.89L29.88 12.89Q29.88 12.71 29.90 12.48L29.90 12.48L29.90 12.48Q29.93 12.25 29.99 11.98L29.99 11.98L30.83 8.05L30.37 8.05ZM36.06 13.22L36.06 13.22L36.06 13.22Q36.41 13.22 36.69 12.92L36.69 12.92L36.69 12.92Q36.97 12.63 37.16 12.07L37.16 12.07L38.14 7.49L40.15 7.49L38.77 13.99L38.77 13.99Q39.47 13.73 39.87 13.28L39.87 13.28L39.87 13.28Q40.26 12.82 40.53 11.98L40.53 11.98L41.12 11.98L41.12 11.98Q40.80 13.05 40.20 13.69L40.20 13.69L40.20 13.69Q39.61 14.34 38.64 14.60L38.64 14.60L38.43 15.61L38.43 15.61Q38.18 16.79 37.55 17.39L37.55 17.39L37.55 17.39Q36.92 17.99 35.91 17.99L35.91 17.99L35.91 17.99Q35.20 17.99 34.77 17.63L34.77 17.63L34.77 17.63Q34.34 17.26 34.34 16.63L34.34 16.63L34.34 16.63Q34.34 15.95 34.91 15.42L34.91 15.42L34.91 15.42Q35.48 14.90 36.62 14.55L36.62 14.55L36.79 13.79L36.79 13.79Q36.44 14.18 36.03 14.38L36.03 14.38L36.03 14.38Q35.62 14.57 35.11 14.57L35.11 14.57L35.11 14.57Q34.41 14.57 34.01 14.13L34.01 14.13L34.01 14.13Q33.61 13.69 33.61 12.89L33.61 12.89L33.61 12.89Q33.61 12.71 33.64 12.48L33.64 12.48L33.64 12.48Q33.67 12.25 33.73 11.98L33.73 11.98L34.68 7.49L36.69 7.49L35.69 12.25L35.69 12.25Q35.67 12.33 35.66 12.43L35.66 12.43L35.66 12.43Q35.64 12.52 35.64 12.60L35.64 12.60L35.64 12.60Q35.64 12.89 35.75 13.05L35.75 13.05L35.75 13.05Q35.85 13.22 36.06 13.22ZM36.40 15.65L36.48 15.25L36.48 15.25Q35.78 15.51 35.45 15.80L35.45 15.80L35.45 15.80Q35.11 16.09 35.11 16.44L35.11 16.44L35.11 16.44Q35.11 16.62 35.25 16.76L35.25 16.76L35.25 16.76Q35.39 16.90 35.59 16.90L35.59 16.90L35.59 16.90Q35.83 16.90 36.05 16.56L36.05 16.56L36.05 16.56Q36.27 16.23 36.40 15.65L36.40 15.65ZM47.01 13.93L46.90 14.49L44.88 14.49L46.79 5.59L48.86 5.31L47.18 13.16L47.18 13.16Q47.38 13.30 47.57 13.37L47.57 13.37L47.57 13.37Q47.77 13.44 47.98 13.44L47.98 13.44L47.98 13.44Q49.11 13.44 49.89 11.57L49.89 11.57L49.89 11.57Q50.67 9.70 50.67 7.28L50.67 7.28L50.67 7.28Q50.67 5.96 50.15 5.30L50.15 5.30L50.15 5.30Q49.63 4.63 48.62 4.63L48.62 4.63L48.62 4.63Q46.98 4.63 45.97 5.56L45.97 5.56L45.97 5.56Q44.95 6.50 44.95 8.04L44.95 8.04L44.95 8.04Q44.95 8.30 44.99 8.50L44.99 8.50L44.99 8.50Q45.02 8.69 45.11 8.88L45.11 8.88L45.11 8.88Q45.14 8.93 45.14 8.95L45.14 8.95L45.14 8.95Q45.15 8.97 45.15 8.99L45.15 8.99L45.15 8.99Q44.39 8.99 44.02 8.67L44.02 8.67L44.02 8.67Q43.65 8.34 43.65 7.69L43.65 7.69L43.65 7.69Q43.65 6.92 44.15 6.18L44.15 6.18L44.15 6.18Q44.65 5.45 45.51 4.90L45.51 4.90L45.51 4.90Q46.23 4.47 47.09 4.23L47.09 4.23L47.09 4.23Q47.95 3.99 48.86 3.99L48.86 3.99L48.86 3.99Q50.65 3.99 51.63 5.06L51.63 5.06L51.63 5.06Q52.60 6.13 52.60 8.02L52.60 8.02L52.60 8.02Q52.60 9.04 52.36 10.09L52.36 10.09L52.36 10.09Q52.12 11.14 51.69 12.05L51.69 12.05L51.69 12.05Q51.11 13.29 50.33 13.98L50.33 13.98L50.33 13.98Q49.55 14.67 48.72 14.67L48.72 14.67L48.72 14.67Q48.30 14.67 47.87 14.48L47.87 14.48L47.87 14.48Q47.45 14.29 47.01 13.93L47.01 13.93ZM56.31 5.63L56.31 5.63L56.31 5.63Q56.31 6.09 55.98 6.41L55.98 6.41L55.98 6.41Q55.65 6.73 55.19 6.73L55.19 6.73L55.19 6.73Q54.73 6.73 54.40 6.41L54.40 6.41L54.40 6.41Q54.08 6.09 54.08 5.63L54.08 5.63L54.08 5.63Q54.08 5.17 54.40 4.84L54.40 4.84L54.40 4.84Q54.73 4.51 55.19 4.51L55.19 4.51L55.19 4.51Q55.65 4.51 55.98 4.84L55.98 4.84L55.98 4.84Q56.31 5.17 56.31 5.63ZM52.74 12.89L52.74 12.89L52.74 12.89Q52.74 12.71 52.77 12.48L52.77 12.48L52.77 12.48Q52.79 12.25 52.85 11.98L52.85 11.98L53.80 7.49L55.82 7.49L54.81 12.25L54.81 12.25Q54.78 12.38 54.77 12.48L54.77 12.48L54.77 12.48Q54.75 12.59 54.75 12.70L54.75 12.70L54.75 12.70Q54.75 12.98 54.89 13.10L54.89 13.10L54.89 13.10Q55.02 13.22 55.33 13.22L55.33 13.22L55.33 13.22Q55.72 13.22 56.07 12.87L56.07 12.87L56.07 12.87Q56.42 12.53 56.59 11.98L56.59 11.98L57.18 11.98L57.18 11.98Q56.73 13.26 55.97 13.92L55.97 13.92L55.97 13.92Q55.22 14.57 54.24 14.57L54.24 14.57L54.24 14.57Q53.54 14.57 53.14 14.13L53.14 14.13L53.14 14.13Q52.74 13.69 52.74 12.89ZM59.19 9.17L58.07 14.49L56.06 14.49L57.54 7.49L59.56 7.49L59.37 8.36L59.37 8.36Q59.99 7.84 60.35 7.67L60.35 7.67L60.35 7.67Q60.70 7.49 61.07 7.49L61.07 7.49L61.07 7.49Q61.50 7.49 61.77 7.79L61.77 7.79L61.77 7.79Q62.03 8.09 62.03 8.54L62.03 8.54L62.03 8.54Q62.03 8.97 61.75 9.27L61.75 9.27L61.75 9.27Q61.47 9.56 61.03 9.56L61.03 9.56L61.03 9.56Q60.79 9.56 60.65 9.45L60.65 9.45L60.65 9.45Q60.52 9.34 60.47 8.99L60.47 8.99L60.47 8.99Q60.42 8.76 60.37 8.70L60.37 8.70L60.37 8.70Q60.31 8.64 60.21 8.64L60.21 8.64L60.21 8.64Q59.98 8.64 59.77 8.74L59.77 8.74L59.77 8.74Q59.56 8.83 59.19 9.17L59.19 9.17ZM66.96 8.71L66.96 8.71L66.96 8.71Q66.96 9.87 66.01 10.73L66.01 10.73L66.01 10.73Q65.06 11.59 63.74 11.66L63.74 11.66L63.74 11.66Q63.73 11.90 63.72 12.02L63.72 12.02L63.72 12.02Q63.71 12.14 63.71 12.22L63.71 12.22L63.71 12.22Q63.71 12.87 63.93 13.13L63.93 13.13L63.93 13.13Q64.15 13.40 64.72 13.40L64.72 13.40L64.72 13.40Q65.38 13.40 65.93 13.10L65.93 13.10L65.93 13.10Q66.49 12.80 67.20 11.98L67.20 11.98L67.68 11.98L67.68 11.98Q66.86 13.30 65.91 13.94L65.91 13.94L65.91 13.94Q64.96 14.57 63.83 14.57L63.83 14.57L63.83 14.57Q62.75 14.57 62.20 14.01L62.20 14.01L62.20 14.01Q61.64 13.45 61.64 12.35L61.64 12.35L61.64 12.35Q61.64 11.55 61.89 10.65L61.89 10.65L61.89 10.65Q62.15 9.76 62.57 9.06L62.57 9.06L62.57 9.06Q63.08 8.22 63.80 7.79L63.80 7.79L63.80 7.79Q64.53 7.36 65.42 7.36L65.42 7.36L65.42 7.36Q66.19 7.36 66.58 7.69L66.58 7.69L66.58 7.69Q66.96 8.02 66.96 8.71ZM65.53 8.11L65.53 8.11L65.53 8.11Q65.06 8.11 64.58 8.95L64.58 8.95L64.58 8.95Q64.09 9.80 63.85 10.99L63.85 10.99L63.85 10.99Q64.67 10.93 65.27 10.24L65.27 10.24L65.27 10.24Q65.88 9.55 65.88 8.68L65.88 8.68L65.88 8.68Q65.88 8.39 65.80 8.25L65.80 8.25L65.80 8.25Q65.72 8.11 65.53 8.11ZM72.59 8.65L72.59 8.65L72.59 8.65Q72.59 9.13 72.39 9.40L72.39 9.40L72.39 9.40Q72.18 9.67 71.85 9.67L71.85 9.67L71.85 9.67Q71.74 9.67 71.61 9.63L71.61 9.63L71.61 9.63Q71.48 9.59 71.36 9.51L71.36 9.51L71.36 9.51Q71.44 9.28 71.48 9.07L71.48 9.07L71.48 9.07Q71.53 8.86 71.53 8.68L71.53 8.68L71.53 8.68Q71.53 8.40 71.43 8.25L71.43 8.25L71.43 8.25Q71.33 8.11 71.13 8.11L71.13 8.11L71.13 8.11Q70.52 8.11 69.93 9.53L69.93 9.53L69.93 9.53Q69.34 10.95 69.34 12.22L69.34 12.22L69.34 12.22Q69.34 12.87 69.56 13.13L69.56 13.13L69.56 13.13Q69.78 13.40 70.35 13.40L70.35 13.40L70.35 13.40Q71.01 13.40 71.56 13.10L71.56 13.10L71.56 13.10Q72.11 12.80 72.83 11.98L72.83 11.98L73.30 11.98L73.30 11.98Q72.49 13.30 71.54 13.94L71.54 13.94L71.54 13.94Q70.59 14.57 69.45 14.57L69.45 14.57L69.45 14.57Q68.38 14.57 67.82 14.01L67.82 14.01L67.82 14.01Q67.27 13.45 67.27 12.35L67.27 12.35L67.27 12.35Q67.27 11.55 67.52 10.65L67.52 10.65L67.52 10.65Q67.76 9.76 68.19 9.06L68.19 9.06L68.19 9.06Q68.71 8.22 69.43 7.79L69.43 7.79L69.43 7.79Q70.15 7.36 71.04 7.36L71.04 7.36L71.04 7.36Q71.81 7.36 72.20 7.69L72.20 7.69L72.20 7.69Q72.59 8.02 72.59 8.65ZM73.21 8.05L73.32 7.49L73.78 7.49L74.20 5.56L76.27 5.28L75.80 7.49L76.64 7.49L76.52 8.05L75.68 8.05L74.79 12.25L74.79 12.25Q74.76 12.38 74.75 12.48L74.75 12.48L74.75 12.48Q74.73 12.59 74.73 12.70L74.73 12.70L74.73 12.70Q74.73 12.98 74.87 13.10L74.87 13.10L74.87 13.10Q75.00 13.22 75.31 13.22L75.31 13.22L75.31 13.22Q75.70 13.22 76.05 12.87L76.05 12.87L76.05 12.87Q76.40 12.53 76.57 11.98L76.57 11.98L77.15 11.98L77.15 11.98Q76.71 13.26 75.95 13.92L75.95 13.92L75.95 13.92Q75.19 14.57 74.21 14.57L74.21 14.57L74.21 14.57Q73.51 14.57 73.12 14.13L73.12 14.13L73.12 14.13Q72.72 13.69 72.72 12.89L72.72 12.89L72.72 12.89Q72.72 12.71 72.74 12.48L72.74 12.48L72.74 12.48Q72.77 12.25 72.83 11.98L72.83 11.98L73.67 8.05L73.21 8.05ZM76.19 12.33L76.19 12.33L76.19 12.33Q76.19 11.54 76.45 10.64L76.45 10.64L76.45 10.64Q76.71 9.74 77.15 9.04L77.15 9.04L77.15 9.04Q77.67 8.22 78.40 7.79L78.40 7.79L78.40 7.79Q79.13 7.36 80.02 7.36L80.02 7.36L80.02 7.36Q80.92 7.36 81.37 7.92L81.37 7.92L81.37 7.92Q81.82 8.48 81.82 9.60L81.82 9.60L81.82 9.60Q81.84 9.62 81.88 9.63L81.88 9.63L81.88 9.63Q81.91 9.63 81.97 9.63L81.97 9.63L81.97 9.63Q82.40 9.63 83.01 9.39L83.01 9.39L83.01 9.39Q83.61 9.16 84.13 8.79L84.13 8.79L84.25 9.17L84.25 9.17Q83.86 9.59 83.21 9.90L83.21 9.90L83.21 9.90Q82.56 10.21 81.77 10.33L81.77 10.33L81.77 10.33Q81.61 12.22 80.68 13.38L80.68 13.38L80.68 13.38Q79.76 14.55 78.43 14.55L78.43 14.55L78.43 14.55Q77.34 14.55 76.76 13.99L76.76 13.99L76.76 13.99Q76.19 13.43 76.19 12.33ZM80.14 8.22L80.14 8.22L80.14 8.22Q79.46 8.22 78.87 9.58L78.87 9.58L78.87 9.58Q78.27 10.93 78.27 12.15L78.27 12.15L78.27 12.15Q78.27 12.81 78.42 13.05L78.42 13.05L78.42 13.05Q78.57 13.29 78.99 13.29L78.99 13.29L78.99 13.29Q79.51 13.29 79.97 12.45L79.97 12.45L79.97 12.45Q80.44 11.61 80.61 10.37L80.61 10.37L80.61 10.37Q80.42 10.33 80.33 10.19L80.33 10.19L80.33 10.19Q80.23 10.04 80.23 9.79L80.23 9.79L80.23 9.79Q80.23 9.52 80.35 9.32L80.35 9.32L80.35 9.32Q80.46 9.13 80.67 9.03L80.67 9.03L80.67 9.03Q80.64 8.58 80.52 8.40L80.52 8.40L80.52 8.40Q80.40 8.22 80.14 8.22ZM85.13 9.17L84.01 14.49L82.00 14.49L83.48 7.49L85.50 7.49L85.32 8.36L85.32 8.36Q85.93 7.84 86.29 7.67L86.29 7.67L86.29 7.67Q86.65 7.49 87.01 7.49L87.01 7.49L87.01 7.49Q87.44 7.49 87.71 7.79L87.71 7.79L87.71 7.79Q87.98 8.09 87.98 8.54L87.98 8.54L87.98 8.54Q87.98 8.97 87.70 9.27L87.70 9.27L87.70 9.27Q87.42 9.56 86.97 9.56L86.97 9.56L86.97 9.56Q86.73 9.56 86.60 9.45L86.60 9.45L86.60 9.45Q86.46 9.34 86.41 8.99L86.41 8.99L86.41 8.99Q86.37 8.76 86.31 8.70L86.31 8.70L86.31 8.70Q86.25 8.64 86.16 8.64L86.16 8.64L86.16 8.64Q85.92 8.64 85.71 8.74L85.71 8.74L85.71 8.74Q85.50 8.83 85.13 9.17L85.13 9.17ZM90.13 13.22L90.13 13.22L90.13 13.22Q90.48 13.22 90.76 12.92L90.76 12.92L90.76 12.92Q91.04 12.63 91.22 12.07L91.22 12.07L92.20 7.49L94.22 7.49L92.83 13.99L92.83 13.99Q93.53 13.73 93.93 13.28L93.93 13.28L93.93 13.28Q94.33 12.82 94.60 11.98L94.60 11.98L95.19 11.98L95.19 11.98Q94.86 13.05 94.27 13.69L94.27 13.69L94.27 13.69Q93.67 14.34 92.71 14.60L92.71 14.60L92.50 15.61L92.50 15.61Q92.25 16.79 91.62 17.39L91.62 17.39L91.62 17.39Q90.99 17.99 89.98 17.99L89.98 17.99L89.98 17.99Q89.26 17.99 88.84 17.63L88.84 17.63L88.84 17.63Q88.41 17.26 88.41 16.63L88.41 16.63L88.41 16.63Q88.41 15.95 88.98 15.42L88.98 15.42L88.98 15.42Q89.54 14.90 90.69 14.55L90.69 14.55L90.86 13.79L90.86 13.79Q90.51 14.18 90.10 14.38L90.10 14.38L90.10 14.38Q89.68 14.57 89.18 14.57L89.18 14.57L89.18 14.57Q88.48 14.57 88.08 14.13L88.08 14.13L88.08 14.13Q87.68 13.69 87.68 12.89L87.68 12.89L87.68 12.89Q87.68 12.71 87.71 12.48L87.71 12.48L87.71 12.48Q87.74 12.25 87.79 11.98L87.79 11.98L88.75 7.49L90.76 7.49L89.75 12.25L89.75 12.25Q89.74 12.33 89.73 12.43L89.73 12.43L89.73 12.43Q89.71 12.52 89.71 12.60L89.71 12.60L89.71 12.60Q89.71 12.89 89.82 13.05L89.82 13.05L89.82 13.05Q89.92 13.22 90.13 13.22ZM90.47 15.65L90.55 15.25L90.55 15.25Q89.85 15.51 89.52 15.80L89.52 15.80L89.52 15.80Q89.18 16.09 89.18 16.44L89.18 16.44L89.18 16.44Q89.18 16.62 89.32 16.76L89.32 16.76L89.32 16.76Q89.46 16.90 89.66 16.90L89.66 16.90L89.66 16.90Q89.89 16.90 90.12 16.56L90.12 16.56L90.12 16.56Q90.34 16.23 90.47 15.65L90.47 15.65Z"></path></g><!----><!----></svg>